<svg width="50" height="50" fill="none" xmlns="http://www.w3.org/2000/svg">
    <mask id="a" style="mask-type:luminance" maskUnits="userSpaceOnUse" x="0" y="0" width="50" height="50">
        <path d="M50 0H0v50h50V0Z" fill="#fff"/>
    </mask>
    <g mask="url(#a)">
        <path d="M24.998 0C11.216 0 0 11.215 0 25s11.215 25 24.998 25c13.788 0 25.003-11.215 25.003-25S38.786 0 24.999 0Z" fill="url(#b)"/>
        <path d="M24.998 6.251c-10.339 0-18.747 8.411-18.747 18.75 0 10.34 8.408 18.75 18.747 18.75 10.342 0 18.75-8.41 18.75-18.75 0-10.339-8.408-18.75-18.75-18.75Z" fill="url(#c)"/>
        <mask id="e" style="mask-type:alpha" maskUnits="userSpaceOnUse" x="15" y="9" width="19" height="32">
            <mask id="d" style="mask-type:luminance" maskUnits="userSpaceOnUse" x="15" y="9" width="19" height="32">
                <path d="M33.696 9.374h-18.07v31.25h18.07V9.374Z" fill="#fff"/>
            </mask>
            <g mask="url(#d)" fill="#F2F2F2">
                <path d="M18.444 30.475c.538.795 1.138 1.645 1.7 2.518 1.541 2.402 1.41 4.483-.393 6.694-.2.244-.392.493-.584.74 5.194-1.818 9.754-4.304 11.76-9.837-1.922-.813-3.71-1.62-5.54-2.317a2.526 2.526 0 0 0-1.637 0c-1.75.662-3.46 1.428-5.306 2.202Zm11.63-5.776-.027-.226H18.271a3.346 3.346 0 0 0-.904.158c-1.241.353-1.887 1.372-1.714 2.673.161 1.198 1.103 1.982 2.403 1.922a5.107 5.107 0 0 0 1.626-.293c3.468-1.385 6.932-2.816 10.392-4.234Zm-3.895 2.423-.076.28c1.545.632 3.068 1.336 4.644 1.868a2.029 2.029 0 0 0 2.338-.665c.319-.397.519-.873.588-1.376a2.834 2.834 0 0 0-.208-1.481c-.307-.78-.88-1.057-1.703-.74-1.86.704-3.714 1.405-5.575 2.114h-.008ZM26.176 9.375c-.835 1.299-.573 2.148.553 3.252 1.127 1.104 2.28 2.078 3.257 3.268.634.78 1.234 1.761 1.376 2.725.385 2.597-1.338 4.385-4.237 4.553 1.223-1.517.442-2.597-.646-3.667-.572-.554-1.076-1.175-1.599-1.754-2.391 1.234-3.637 3.637-2.791 5.323-1.2.205-2.526-.356-3.376-1.51-.915-1.236-1.165-2.644-.438-3.997.6-1.068 1.33-2.058 2.172-2.946a39.823 39.823 0 0 1 3.86-3.842c.592-.493 1.803-1.441 1.869-1.405Z"/>
            </g>
        </mask>
        <g mask="url(#e)">
            <path d="M34.378 8.75H15.003v32.5h19.375V8.75Z" fill="url(#f)"/>
        </g>
    </g>
    <defs>
        <linearGradient id="b" x1="7.332" y1="42.67" x2="42.669" y2="7.33" gradientUnits="userSpaceOnUse">
            <stop stop-color="#FF8125"/>
            <stop offset="1" stop-color="#FFC025"/>
        </linearGradient>
        <linearGradient id="c" x1="11.749" y1="38.253" x2="38.255" y2="11.749" gradientUnits="userSpaceOnUse">
            <stop stop-color="#FFC025"/>
            <stop offset="1" stop-color="#FFFF7F"/>
        </linearGradient>
        <linearGradient id="f" x1="34.377" y1="8.75" x2="15.003" y2="41.25" gradientUnits="userSpaceOnUse">
            <stop stop-color="#FFC025"/>
            <stop offset="1" stop-color="#FF8125"/>
        </linearGradient>
    </defs>
</svg>
