<svg width="24" height="23" viewBox="0 0 24 23" fill="none" xmlns="http://www.w3.org/2000/svg">
<path fill-rule="evenodd" clip-rule="evenodd" d="M12 4.28564L15.4287 12.8573L21.429 7.71431L19.7146 18.8575H12V4.28564Z" fill="#7584FF"/>
<path fill-rule="evenodd" clip-rule="evenodd" d="M2.57154 3.42871C1.15248 3.42871 0 4.58117 0 6.00021C0 7.41925 1.15248 8.57171 2.57154 8.57171C3.9906 8.57171 5.14308 7.41925 5.14308 6.00021C5.14308 4.58117 3.9906 3.42871 2.57154 3.42871ZM2.57154 5.14304C3.0447 5.14304 3.42872 5.52705 3.42872 6.00021C3.42872 6.47337 3.0447 6.85738 2.57154 6.85738C2.09838 6.85738 1.71436 6.47337 1.71436 6.00021C1.71436 5.52705 2.09838 5.14304 2.57154 5.14304Z" fill="#364F6B"/>
<path fill-rule="evenodd" clip-rule="evenodd" d="M21.4285 3.42871C20.0094 3.42871 18.8569 4.58117 18.8569 6.00021C18.8569 7.41925 20.0094 8.57171 21.4285 8.57171C22.8475 8.57171 24 7.41925 24 6.00021C24 4.58117 22.8475 3.42871 21.4285 3.42871ZM21.4285 5.14304C21.9016 5.14304 22.2857 5.52705 22.2857 6.00021C22.2857 6.47337 21.9016 6.85738 21.4285 6.85738C20.9553 6.85738 20.5713 6.47337 20.5713 6.00021C20.5713 5.52705 20.9553 5.14304 21.4285 5.14304Z" fill="#364F6B"/>
<path fill-rule="evenodd" clip-rule="evenodd" d="M12.0007 0C10.5817 0 9.4292 1.15246 9.4292 2.5715C9.4292 3.99054 10.5817 5.143 12.0007 5.143C13.4198 5.143 14.5723 3.99054 14.5723 2.5715C14.5723 1.15246 13.4198 0 12.0007 0ZM12.0007 1.71433C12.4739 1.71433 12.8579 2.09834 12.8579 2.5715C12.8579 3.04465 12.4739 3.42867 12.0007 3.42867C11.5276 3.42867 11.1436 3.04465 11.1436 2.5715C11.1436 2.09834 11.5276 1.71433 12.0007 1.71433Z" fill="#364F6B"/>
<path fill-rule="evenodd" clip-rule="evenodd" d="M8.2204 11.4274L11.2042 3.96744C11.3345 3.64215 11.6496 3.42871 12.0001 3.42871C12.3507 3.42871 12.6657 3.64215 12.796 3.96744L15.7799 11.4274L20.8711 7.06353C21.1437 6.83038 21.5324 6.79095 21.8457 6.96538C22.159 7.13981 22.3309 7.49039 22.2764 7.84483L20.5621 18.988C20.4901 19.4556 20.0521 19.777 19.5845 19.705C19.1169 19.633 18.7954 19.195 18.8674 18.7274L20.2299 9.87117L15.9869 13.5086C15.7769 13.6881 15.4927 13.7559 15.2244 13.6899C14.9557 13.6238 14.7358 13.4327 14.633 13.176L12.0001 6.5938L9.36731 13.176C9.26445 13.4327 9.04458 13.6238 8.77585 13.6899C8.50756 13.7559 8.2234 13.6881 8.01339 13.5086L3.77035 9.87117L5.02098 18.0005H16.286C16.7592 18.0005 17.1432 18.3846 17.1432 18.8577C17.1432 19.3309 16.7592 19.7149 16.286 19.7149H4.28552C3.8625 19.7149 3.50249 19.4063 3.4382 18.988L1.72384 7.84483C1.66941 7.49039 1.84127 7.13981 2.15457 6.96538C2.46787 6.79095 2.8566 6.83038 3.12919 7.06353L8.2204 11.4274Z" fill="#364F6B"/>
<path fill-rule="evenodd" clip-rule="evenodd" d="M5.14331 22.2856H18.8582C19.3313 22.2856 19.7154 21.9016 19.7154 21.4285C19.7154 20.9553 19.3313 20.5713 18.8582 20.5713H5.14331C4.67015 20.5713 4.28613 20.9553 4.28613 21.4285C4.28613 21.9016 4.67015 22.2856 5.14331 22.2856Z" fill="#364F6B"/>
</svg>
