<svg width="24" height="24" viewBox="0 0 24 24" fill="none" xmlns="http://www.w3.org/2000/svg">
<g clip-path="url(#clip0_2721_5784)">
<path fill-rule="evenodd" clip-rule="evenodd" d="M3 17.9995H18C18.414 17.9995 18.75 18.3355 18.75 18.7497C18.75 19.1638 18.414 19.4999 18 19.4999H2.25C1.83562 19.4999 1.5 19.1638 1.5 18.7497V5.24972C1.5 4.83556 1.83562 4.49951 2.25 4.49951H21.75C22.1644 4.49951 22.5 4.83556 22.5 5.24972V18.7497C22.5 19.1638 22.1644 19.4999 21.75 19.4999H21C20.586 19.4999 20.25 19.1638 20.25 18.7497C20.25 18.3355 20.586 17.9995 21 17.9995V5.99993H3V17.9995Z" fill="black"/>
<path fill-rule="evenodd" clip-rule="evenodd" d="M22.5 8.25C22.5 7.83562 22.1644 7.5 21.75 7.5H18.75C18.3356 7.5 18 7.83562 18 8.25V15.75C18 16.1644 18.3356 16.5 18.75 16.5H21.75C22.1644 16.5 22.5 16.1644 22.5 15.75V8.25ZM19.5 9V15H21V9H19.5Z" fill="black"/>
<path fill-rule="evenodd" clip-rule="evenodd" d="M6 8.25C6 7.83562 5.66438 7.5 5.25 7.5H2.25C1.83562 7.5 1.5 7.83562 1.5 8.25V15.75C1.5 16.1644 1.83562 16.5 2.25 16.5H5.25C5.66438 16.5 6 16.1644 6 15.75V8.25ZM3 9V15H4.5V9H3Z" fill="black"/>
<path fill-rule="evenodd" clip-rule="evenodd" d="M11.25 5.24999V9.74995C11.25 10.1638 11.586 10.4999 12 10.4999C12.414 10.4999 12.75 10.1638 12.75 9.74995V5.24999C12.75 4.83612 12.414 4.5 12 4.5C11.586 4.5 11.25 4.83612 11.25 5.24999Z" fill="black"/>
<path fill-rule="evenodd" clip-rule="evenodd" d="M12 9C10.3444 9 9 10.3444 9 12C9 13.6556 10.3444 15 12 15C13.6556 15 15 13.6556 15 12C15 10.3444 13.6556 9 12 9ZM12 10.5C12.828 10.5 13.5 11.172 13.5 12C13.5 12.828 12.828 13.5 12 13.5C11.172 13.5 10.5 12.828 10.5 12C10.5 11.172 11.172 10.5 12 10.5Z" fill="black"/>
<path fill-rule="evenodd" clip-rule="evenodd" d="M11.25 14.25V18.7499C11.25 19.1638 11.586 19.4999 12 19.4999C12.414 19.4999 12.75 19.1638 12.75 18.7499V14.25C12.75 13.8361 12.414 13.5 12 13.5C11.586 13.5 11.25 13.8361 11.25 14.25Z" fill="black"/>
</g>
<defs>
<clipPath id="clip0_2721_5784">
<rect width="24" height="24" fill="white"/>
</clipPath>
</defs>
</svg>
