<svg width="24" height="24" viewBox="0 0 24 24" fill="none" xmlns="http://www.w3.org/2000/svg">
<g clip-path="url(#clip0_2721_5745)">
<path fill-rule="evenodd" clip-rule="evenodd" d="M8.99998 18.75H12C12.4139 18.75 12.75 19.0862 12.75 19.5C12.75 19.9138 12.4139 20.25 12 20.25H8.24999C7.83561 20.25 7.5 19.9143 7.5 19.5V4.5C7.5 4.08573 7.83561 3.75 8.24999 3.75H15.75C16.1644 3.75 16.5 4.08573 16.5 4.5V19.5C16.5 19.9143 16.1644 20.25 15.75 20.25H15C14.5861 20.25 14.25 19.9138 14.25 19.5C14.25 19.0862 14.5861 18.75 15 18.75V5.25H8.99998V18.75Z" fill="#364F6B"/>
<path d="M21.75 9H15.75V19.5H21.75V9Z" fill="#7584FF"/>
<path fill-rule="evenodd" clip-rule="evenodd" d="M22.5 9.00013C22.5 8.586 22.1644 8.25 21.75 8.25H15.75C15.3356 8.25 15 8.586 15 9.00013V19.5001C15 19.9143 15.3356 20.2503 15.75 20.2503H21.75C22.1644 20.2503 22.5 19.9143 22.5 19.5001V9.00013ZM16.5 9.75027V18.75H21V9.75027H16.5Z" fill="#364F6B"/>
<path d="M8.25 11.9995H2.25V19.4994H8.25V11.9995Z" fill="#7584FF"/>
<path fill-rule="evenodd" clip-rule="evenodd" d="M9 11.9995C9 11.5852 8.66438 11.2495 8.25 11.2495H2.25C1.83562 11.2495 1.5 11.5852 1.5 11.9995V19.4994C1.5 19.9137 1.83562 20.2494 2.25 20.2494H8.25C8.66438 20.2494 9 19.9137 9 19.4994V11.9995ZM3 12.7495V18.7494H7.5V12.7495H3Z" fill="#364F6B"/>
<path fill-rule="evenodd" clip-rule="evenodd" d="M11.2499 12.75V9.74998C11.0579 9.74998 10.8659 9.67648 10.7197 9.53023C10.4268 9.23773 10.4268 8.76223 10.7197 8.46973L11.4697 7.71973C11.6842 7.50523 12.0067 7.4411 12.2868 7.55697C12.5673 7.67322 12.7499 7.9466 12.7499 8.24998V11.25C13.1639 11.25 13.4999 11.586 13.4999 12C13.4999 12.414 13.1639 12.75 12.7499 12.75H11.2499Z" fill="#364F6B"/>
</g>
<defs>
<clipPath id="clip0_2721_5745">
<rect width="24" height="24" fill="white"/>
</clipPath>
</defs>
</svg>
