<svg width="24" height="24" viewBox="0 0 24 24" fill="none" xmlns="http://www.w3.org/2000/svg">
<g clip-path="url(#clip0_2721_5826)">
<path fill-rule="evenodd" clip-rule="evenodd" d="M19.8178 12.198L19.4149 10.6944C19.3078 10.2945 19.5454 9.88298 19.9453 9.77583C20.3451 9.66868 20.7567 9.90626 20.8638 10.3062L21.2759 11.8442C21.3421 12.0912 21.3271 12.5102 21.1692 13.0367C20.9147 13.8864 20.3025 15.1631 19.5963 16.3858C18.8905 17.6087 18.0909 18.7772 17.4823 19.4225C17.1054 19.8224 16.75 20.045 16.5029 20.1112C15.7785 20.3053 9.2585 22.0523 9.2585 22.0523C7.2594 22.588 5.20137 21.3998 4.66571 19.4007L1.94811 9.25845C1.41245 7.25935 2.60066 5.20132 4.59976 4.66566L14.742 1.94806C16.7411 1.4124 18.7991 2.60061 19.3348 4.59971L20.06 7.30623C20.167 7.70576 19.9295 8.11764 19.5297 8.22479C19.1298 8.33194 18.7182 8.09399 18.6111 7.69446C18.2194 6.23253 17.8859 4.98794 17.8859 4.98794C17.5645 3.78862 16.3295 3.07559 15.1302 3.39695L4.98799 6.11455C3.78867 6.4359 3.07564 7.67091 3.397 8.87022L6.1146 19.0124C6.43596 20.2118 7.67096 20.9248 8.87028 20.6034L16.0803 18.6715C16.119 18.6378 16.4207 18.3726 16.6197 18.1345C17.1336 17.5185 17.7442 16.5936 18.2974 15.6359C18.8502 14.6779 19.3459 13.6867 19.6224 12.9336C19.7291 12.6422 19.808 12.2483 19.8178 12.198Z" fill="black"/>
<path fill-rule="evenodd" clip-rule="evenodd" d="M21.2867 11.8891C21.2419 11.6899 21.1177 11.5178 20.943 11.4121C20.7684 11.3067 20.5582 11.2768 20.3611 11.3296L17.4796 12.1017C15.4805 12.6374 14.2923 14.6954 14.828 16.6945L15.6001 19.576C15.6529 19.773 15.7839 19.9402 15.9624 20.0387C16.141 20.1372 16.3525 20.1586 16.5474 20.0978C16.7911 20.022 17.1346 19.7941 17.5012 19.402C18.1073 18.7531 18.8971 17.5962 19.5961 16.3855C20.2948 15.1753 20.9021 13.9123 21.161 13.063C21.3174 12.5498 21.3429 12.138 21.2867 11.8891ZM19.5602 13.0971L17.8679 13.5506C16.6682 13.872 15.9554 15.1066 16.2769 16.3063L16.7303 17.9986C17.2198 17.3868 17.7834 16.5257 18.2973 15.6356C18.8108 14.7456 19.2751 13.8269 19.5602 13.0971Z" fill="black"/>
<path d="M14.8813 7.53989C15.4814 7.37908 16.0983 7.73524 16.2591 8.33539C16.4199 8.93553 16.0638 9.55241 15.4636 9.71322C14.8635 9.87403 14.2466 9.51788 14.0858 8.91773C13.925 8.31758 14.2811 7.7007 14.8813 7.53989Z" fill="black"/>
<path d="M7.27434 9.57798C7.87449 9.41717 8.49137 9.77332 8.65218 10.3735C8.81299 10.9736 8.45684 11.5905 7.85669 11.7513C7.25654 11.9121 6.63966 11.556 6.47885 10.9558C6.31804 10.3557 6.67419 9.73879 7.27434 9.57798Z" fill="black"/>
<path fill-rule="evenodd" clip-rule="evenodd" d="M14.9572 15.4641C14.4442 15.8614 13.8353 16.167 13.1648 16.3467C11.3607 16.8301 9.47734 16.3088 8.47374 14.9954C8.22247 14.6664 7.75153 14.6036 7.42255 14.8548C7.09364 15.1063 7.03064 15.5771 7.2819 15.9061C8.62824 17.6684 11.1323 18.444 13.5529 17.7954C14.4221 17.5625 15.2108 17.1651 15.8757 16.6499C16.203 16.3965 16.2631 15.9248 16.0096 15.5977C15.7561 15.2703 15.2845 15.2107 14.9572 15.4641Z" fill="black"/>
</g>
<defs>
<clipPath id="clip0_2721_5826">
<rect width="24" height="24" fill="white"/>
</clipPath>
</defs>
</svg>
