<svg width="24" height="24" viewBox="0 0 24 24" fill="none" xmlns="http://www.w3.org/2000/svg">
<g clip-path="url(#clip0_2721_5844)">
<path fill-rule="evenodd" clip-rule="evenodd" d="M8.78881 5.22216L9.40606 2.99616C9.48068 2.72654 9.6993 2.52103 9.97268 2.46291C11.3092 2.17903 12.6907 2.17903 14.0272 2.46291C14.3006 2.52103 14.5192 2.72654 14.5938 2.99616L15.2111 5.22216C15.5782 5.39616 15.9303 5.59941 16.2641 5.83003L18.5006 5.25179C18.7713 5.18166 19.0586 5.26791 19.2457 5.47603C20.1599 6.49116 20.8507 7.68741 21.2726 8.98716C21.3592 9.25304 21.2906 9.54478 21.0944 9.74428L19.4752 11.392C19.5082 11.7967 19.5082 12.2032 19.4752 12.6078L21.0944 14.2555C21.2906 14.455 21.3592 14.7468 21.2726 15.0127C20.8507 16.3124 20.1599 17.5087 19.2457 18.5238C19.0586 18.7319 18.7713 18.8182 18.5006 18.748L16.2641 18.1698C15.9299 18.4004 15.5778 18.604 15.2111 18.7777L14.5938 21.0037C14.5192 21.2733 14.3006 21.4788 14.0272 21.5369C12.6907 21.8208 11.3092 21.8208 9.97268 21.5369C9.6993 21.4788 9.48068 21.2733 9.40606 21.0037L8.78881 18.7777C8.42168 18.6037 8.06955 18.4004 7.7358 18.1698L5.49931 18.748C5.22856 18.8182 4.94131 18.7319 4.75418 18.5238C3.83993 17.5087 3.14918 16.3124 2.72731 15.0127C2.64068 14.7468 2.7093 14.455 2.90542 14.2555L4.52468 12.6078C4.49168 12.2032 4.49168 11.7967 4.52468 11.392L2.90542 9.74428C2.7093 9.54478 2.64068 9.25304 2.72731 8.98716C3.14918 7.68741 3.83993 6.49116 4.75418 5.47603C4.94131 5.26791 5.22856 5.18166 5.49931 5.25179L7.7358 5.83003C8.06993 5.59941 8.42206 5.39578 8.78881 5.22216ZM13.2738 3.84891C12.4297 3.71691 11.5702 3.71691 10.7261 3.84891L10.1396 5.96428C10.0777 6.18666 9.91718 6.36816 9.70381 6.45666C9.21931 6.65728 8.76331 6.92053 8.34743 7.23966C8.16406 7.38028 7.92668 7.42866 7.70318 7.37091L5.57805 6.82116C5.04143 7.48641 4.61168 8.23041 4.30418 9.02766L5.84242 10.5933C6.00442 10.7579 6.0813 10.9878 6.0513 11.2169C5.98268 11.7367 5.98268 12.2632 6.0513 12.7829C6.0813 13.012 6.00442 13.2419 5.84242 13.4065L4.30418 14.9722C4.61168 15.769 5.04143 16.5134 5.57805 17.1787L7.70318 16.6289C7.92668 16.5712 8.16406 16.6195 8.34743 16.7602C8.76331 17.0793 9.21931 17.3425 9.70381 17.5432C9.91718 17.6317 10.0777 17.8132 10.1396 18.0355L10.7261 20.1509C11.5702 20.2829 12.4297 20.2829 13.2738 20.1509L13.8603 18.0355C13.9222 17.8132 14.0827 17.6317 14.296 17.5432C14.7805 17.3425 15.2366 17.0793 15.6524 16.7602C15.8358 16.6195 16.0732 16.5712 16.2967 16.6289L18.4218 17.1787C18.9584 16.5134 19.3882 15.7694 19.6957 14.9722L18.1574 13.4065C17.9954 13.2419 17.9186 13.012 17.9486 12.7829C18.0172 12.2632 18.0172 11.7367 17.9486 11.2169C17.9186 10.9878 17.9954 10.7579 18.1574 10.5933L19.6957 9.02766C19.3882 8.23079 18.9584 7.48641 18.4218 6.82116L16.2967 7.37091C16.0732 7.42866 15.8358 7.38028 15.6524 7.23966C15.2366 6.92053 14.7805 6.65728 14.296 6.45666C14.0827 6.36816 13.9222 6.18666 13.8603 5.96428L13.2738 3.84891ZM11.9999 14.2469C10.7598 14.2469 9.75293 13.24 9.75293 11.9999C9.75293 10.7598 10.7598 9.75291 11.9999 9.75291C13.2401 9.75291 14.2469 10.7598 14.2469 11.9999C14.2469 12.409 14.1374 12.793 13.9458 13.1238C13.7381 13.4819 13.8603 13.9413 14.2184 14.1487C14.5765 14.3564 15.0359 14.2342 15.2433 13.876C15.5635 13.324 15.7469 12.6832 15.7469 11.9999C15.7469 9.93178 14.0681 8.25291 11.9999 8.25291C9.9318 8.25291 8.25293 9.93178 8.25293 11.9999C8.25293 14.068 9.9318 15.7469 11.9999 15.7469C12.4139 15.7469 12.7499 15.4109 12.7499 14.9969C12.7499 14.5829 12.4139 14.2469 11.9999 14.2469Z" fill="black"/>
</g>
<defs>
<clipPath id="clip0_2721_5844">
<rect width="24" height="24" fill="white"/>
</clipPath>
</defs>
</svg>
