<svg width="24" height="24" viewBox="0 0 24 24" fill="none" xmlns="http://www.w3.org/2000/svg">
<g clip-path="url(#clip0_2721_5817)">
<path fill-rule="evenodd" clip-rule="evenodd" d="M18.7495 2.25C16.6798 2.25 14.9995 3.93034 14.9995 6C14.9995 8.06967 16.6798 9.75001 18.7495 9.75001C20.8192 9.75001 22.4995 8.06967 22.4995 6C22.4995 3.93034 20.8192 2.25 18.7495 2.25ZM18.7495 3.75C19.9912 3.75 20.9995 4.75834 20.9995 6C20.9995 7.24167 19.9912 8.25001 18.7495 8.25001C17.5078 8.25001 16.4995 7.24167 16.4995 6C16.4995 4.75834 17.5078 3.75 18.7495 3.75Z" fill="black"/>
<path fill-rule="evenodd" clip-rule="evenodd" d="M17.2495 14.25C15.1798 14.25 13.4995 15.9303 13.4995 18C13.4995 20.0697 15.1798 21.75 17.2495 21.75C19.3192 21.75 20.9995 20.0697 20.9995 18C20.9995 15.9303 19.3192 14.25 17.2495 14.25ZM17.2495 15.75C18.4912 15.75 19.4995 16.7583 19.4995 18C19.4995 19.2417 18.4912 20.25 17.2495 20.25C16.0078 20.25 14.9995 19.2417 14.9995 18C14.9995 16.7583 16.0078 15.75 17.2495 15.75Z" fill="black"/>
<path fill-rule="evenodd" clip-rule="evenodd" d="M8.83312 14.5924C9.4065 13.8836 9.75 12.9818 9.75 12C9.75 9.72337 7.90163 7.875 5.625 7.875C3.34837 7.875 1.5 9.72337 1.5 12C1.5 14.2766 3.34837 16.125 5.625 16.125C6.039 16.125 6.375 15.789 6.375 15.375C6.375 14.961 6.039 14.625 5.625 14.625C4.17638 14.625 3 13.4486 3 12C3 10.5514 4.17638 9.375 5.625 9.375C7.07362 9.375 8.25 10.5514 8.25 12C8.25 12.6244 8.03175 13.1981 7.66688 13.6489C7.40663 13.9706 7.4565 14.4431 7.77825 14.7034C8.1 14.964 8.57287 14.9141 8.83312 14.5924Z" fill="black"/>
<path fill-rule="evenodd" clip-rule="evenodd" d="M15.4379 6.68906L8.68792 9.77493C8.3118 9.94705 8.14567 10.3922 8.3178 10.7687C8.48992 11.1452 8.9354 11.3113 9.3119 11.1392L16.0619 8.05331C16.438 7.88119 16.6042 7.43605 16.432 7.05955C16.2599 6.68305 15.8144 6.51694 15.4379 6.68906ZM14.5938 15.7851L9.34378 13.0753C8.97591 12.8856 8.5233 13.0299 8.33355 13.3978C8.14342 13.7657 8.28817 14.2183 8.65604 14.4081L13.906 17.1178C14.2739 17.3076 14.7265 17.1632 14.9163 16.7953C15.1064 16.4274 14.9617 15.9748 14.5938 15.7851Z" fill="black"/>
</g>
<defs>
<clipPath id="clip0_2721_5817">
<rect width="24" height="24" fill="white"/>
</clipPath>
</defs>
</svg>
