<svg width="21" height="26" viewBox="0 0 21 26" fill="none" xmlns="http://www.w3.org/2000/svg">
<path d="M10.4415 7.37941V1L1 3.55176L2.02071 6.10353L1.76553 10.6967L2.53106 19.1175L10.4415 24.9866V18.0968L6.86905 14.7795V11.9726V8.91047L10.4415 7.37941Z" fill="#7584FF"/>
<path d="M16.9186 20.427C17.7249 19.5878 18.043 19.0241 18.1934 18.7369C18.3175 18.4993 18.7855 17.576 19.0615 15.8844C19.6764 12.1172 18.3479 10.6287 18.8757 7.20234C18.9896 6.46237 19.2403 5.30456 19.883 3.91529L10.4413 1L1 3.91479C1.64222 5.30355 1.89343 6.46187 2.00739 7.20183C2.53514 10.6282 1.20664 12.1172 1.82151 15.8839C2.09754 17.576 2.56553 18.4993 2.68961 18.7364C2.92107 19.1785 3.5486 20.274 5.74317 22.0234C6.8083 22.8723 8.36673 23.9739 10.4413 25C11.75 24.3527 12.8531 23.6756 13.7567 23.0506" stroke="#364F6B" stroke-width="1.78623" stroke-linecap="round" stroke-linejoin="round"/>
<path d="M13.8606 10.2717C13.907 9.95696 14.0084 9.46435 14.2691 8.87399L10.4414 7.63428L6.61377 8.87399C6.87401 9.46478 6.97581 9.95739 7.02219 10.2717C7.23604 11.7289 6.69751 12.3623 6.94666 13.9642C7.05872 14.6837 7.24836 15.0764 7.29885 15.1776C7.39284 15.3658 7.64734 15.8317 8.53683 16.5754C8.96864 16.9362 9.60036 17.4051 10.4414 17.8413C11.2825 17.4051 11.9142 16.9362 12.346 16.5754C13.2355 15.8317 13.49 15.3654 13.584 15.1776C13.6345 15.0764 13.8241 14.6841 13.9362 13.9642C14.1853 12.3619 13.6468 11.7289 13.8606 10.2717Z" stroke="#364F6B" stroke-width="1.78623" stroke-linejoin="round"/>
</svg>
