<svg width="24" height="24" viewBox="0 0 24 24" fill="none" xmlns="http://www.w3.org/2000/svg">
<path fill-rule="evenodd" clip-rule="evenodd" d="M21.8364 6.49942H9.30581C8.76493 6.49942 8.32632 6.05119 8.32632 5.49928C8.32632 4.94737 8.76493 4.49914 9.30581 4.49914H23.02C23.3119 4.49914 23.5887 4.63204 23.7747 4.86173C23.9607 5.09142 24.037 5.39362 23.9823 5.68632L22.0234 16.1864C21.9352 16.6583 21.5314 16.9995 21.0611 16.9995H7.34638C6.87603 16.9995 6.47225 16.6583 6.38408 16.1864L4.42511 5.68632C4.32416 5.14425 4.67284 4.62022 5.20402 4.51686C5.7352 4.4135 6.24831 4.76985 6.3497 5.31224L8.15706 14.9992H20.2504L21.8364 6.49942Z" fill="#364F6B"/>
<path fill-rule="evenodd" clip-rule="evenodd" d="M3.62252 2.00002H0.979591C0.438857 2.00002 0 1.55202 0 1.00001C0 0.448004 0.438857 0 0.979591 0H4.40816C4.8671 0 5.26482 0.3255 5.36425 0.783005L6.34384 5.28305C6.46139 5.82205 6.12784 6.35656 5.60033 6.47606C5.07233 6.59606 4.54872 6.25556 4.43165 5.71706L3.62252 2.00002Z" fill="#364F6B"/>
<path fill-rule="evenodd" clip-rule="evenodd" d="M7.34746 17.9995C5.72575 17.9995 4.40869 19.344 4.40869 20.9995C4.40869 22.6551 5.72575 23.9996 7.34746 23.9996C8.96917 23.9996 10.2862 22.6551 10.2862 20.9995C10.2862 19.344 8.96917 17.9995 7.34746 17.9995ZM7.34746 19.9995C7.8882 19.9995 8.32705 20.4475 8.32705 20.9995C8.32705 21.5515 7.8882 21.9996 7.34746 21.9996C6.80673 21.9996 6.36787 21.5515 6.36787 20.9995C6.36787 20.4475 6.80673 19.9995 7.34746 19.9995Z" fill="#364F6B"/>
<path fill-rule="evenodd" clip-rule="evenodd" d="M21.0613 17.9995C19.4396 17.9995 18.1226 19.344 18.1226 20.9995C18.1226 22.6551 19.4396 23.9996 21.0613 23.9996C22.683 23.9996 24.0001 22.6551 24.0001 20.9995C24.0001 19.344 22.683 17.9995 21.0613 17.9995ZM21.0613 19.9995C21.6021 19.9995 22.0409 20.4475 22.0409 20.9995C22.0409 21.5515 21.6021 21.9996 21.0613 21.9996C20.5206 21.9996 20.0817 21.5515 20.0817 20.9995C20.0817 20.4475 20.5206 19.9995 21.0613 19.9995Z" fill="#364F6B"/>
<path fill-rule="evenodd" clip-rule="evenodd" d="M8.4903 15.4454L6.53113 18.4454C6.23137 18.9046 6.35285 19.5258 6.80281 19.8321C7.25277 20.1383 7.86139 20.0137 8.16114 19.5546L10.1203 16.5545C10.4201 16.0954 10.2986 15.4741 9.84863 15.1679C9.39868 14.8616 8.79006 14.9862 8.4903 15.4454Z" fill="#364F6B"/>
<path fill-rule="evenodd" clip-rule="evenodd" d="M9.79587 22H19.102C19.6427 22 20.0814 21.552 20.0814 21C20.0814 20.448 19.6427 20 19.102 20H9.79587C9.25518 20 8.81641 20.448 8.81641 21C8.81641 21.552 9.25518 22 9.79587 22Z" fill="#364F6B"/>
</svg>
