<svg width="24" height="24" viewBox="0 0 24 24" fill="none" xmlns="http://www.w3.org/2000/svg">
<g clip-path="url(#clip0_2721_5761)">
<path fill-rule="evenodd" clip-rule="evenodd" d="M12 7.5C8.064 7.5 4.65262 8.22033 2.95612 9.22667C1.96875 9.81267 1.5 10.545 1.5 11.25C1.5 11.955 1.96875 12.6873 2.95612 13.2733C4.65262 14.2797 8.064 15 12 15C15.936 15 19.3474 14.2797 21.0439 13.2733C22.0313 12.6873 22.5 11.955 22.5 11.25C22.5 10.545 22.0313 9.81267 21.0439 9.22667C19.3474 8.22033 15.936 7.5 12 7.5ZM12 9C15.1087 9 17.8688 9.45334 19.5776 10.1703C20.0738 10.3787 20.4731 10.6033 20.7439 10.8533C20.886 10.9847 21 11.104 21 11.25C21 11.396 20.886 11.5153 20.7439 11.6467C20.4731 11.8967 20.0738 12.1213 19.5776 12.3297C17.8688 13.0467 15.1087 13.5 12 13.5C8.89125 13.5 6.13125 13.0467 4.42237 12.3297C3.92625 12.1213 3.52688 11.8967 3.25613 11.6467C3.11401 11.5153 3 11.396 3 11.25C3 11.104 3.11401 10.9847 3.25613 10.8533C3.52688 10.6033 3.92625 10.3787 4.42237 10.1703C6.13125 9.45334 8.89125 9 12 9Z" fill="black"/>
<path fill-rule="evenodd" clip-rule="evenodd" d="M11.9999 10.5C9.81209 10.5 7.91745 10.8845 6.97448 11.404C6.28632 11.783 6 12.2938 6 12.75C6 13.2061 6.28632 13.717 6.97448 14.096C7.91745 14.6155 9.81209 15 11.9999 15C14.1878 15 16.0824 14.6155 17.0254 14.096C17.7135 13.717 17.9998 13.2061 17.9998 12.75C17.9998 12.2938 17.7135 11.783 17.0254 11.404C16.0824 10.8845 14.1878 10.5 11.9999 10.5ZM16.3273 12.75C16.2217 12.6853 16.0891 12.6118 15.9641 12.5631C15.0702 12.2148 13.626 12 11.9999 12C10.3738 12 8.92969 12.2148 8.03578 12.5631C7.91079 12.6118 7.77813 12.6853 7.67252 12.75C7.77813 12.8146 7.91079 12.8881 8.03578 12.9368C8.92969 13.2851 10.3738 13.5 11.9999 13.5C13.626 13.5 15.0702 13.2851 15.9641 12.9368C16.0891 12.8881 16.2217 12.8146 16.3273 12.75Z" fill="black"/>
<path fill-rule="evenodd" clip-rule="evenodd" d="M2.25101 18.0501L1.52764 11.5405C1.48339 11.1445 1.75677 10.7834 2.14977 10.7178C2.54277 10.6525 2.91852 10.9056 3.00514 11.2945C3.04264 11.4636 3.19189 11.6046 3.38502 11.7558C3.69327 11.9969 4.11814 12.2151 4.63339 12.4146C6.35651 13.0818 9.01789 13.4999 11.9999 13.4999C14.9819 13.4999 17.6433 13.0818 19.3664 12.4146C19.8816 12.2151 20.3065 11.9969 20.6148 11.7558C20.8079 11.6046 20.9571 11.4636 20.9946 11.2945C21.0813 10.9056 21.457 10.6525 21.85 10.7178C22.243 10.7834 22.5164 11.1445 22.4721 11.5405L22.3285 12.8328C22.2828 13.2441 21.9119 13.5411 21.5005 13.4954C21.3201 13.4751 21.1615 13.3926 21.0445 13.2715C20.9661 13.3188 20.884 13.3653 20.7989 13.4103C19.0416 14.3455 15.76 14.9999 11.9999 14.9999C8.27239 14.9999 5.01514 14.3568 3.24739 13.4346L3.74539 17.917C3.74839 17.9444 3.74989 17.9721 3.74989 17.9999C3.74989 18.1514 3.85339 18.2811 3.98952 18.4176C4.23477 18.6629 4.59776 18.8838 5.04776 19.0885C6.61526 19.801 9.14802 20.2499 11.9999 20.2499C14.8518 20.2499 17.3845 19.801 18.952 19.0885C19.402 18.8838 19.765 18.6629 20.0103 18.4176C20.1464 18.2811 20.2499 18.1514 20.2499 17.9999C20.2499 17.9721 20.2514 17.9444 20.2544 17.917L20.5045 15.667C20.5503 15.2556 20.9211 14.9586 21.3329 15.0044C21.7443 15.0501 22.0409 15.4214 21.9951 15.8328L21.7488 18.0501C21.7289 18.7386 21.2898 19.4373 20.4003 20.0091C18.8241 21.022 15.6565 21.7499 11.9999 21.7499C8.34326 21.7499 5.17564 21.022 3.59951 20.0091C2.71001 19.4373 2.27089 18.7386 2.25101 18.0501Z" fill="black"/>
<path fill-rule="evenodd" clip-rule="evenodd" d="M9 20.9055C9 21.2948 9.29775 21.6191 9.68588 21.6525C10.4254 21.7163 11.2009 21.75 12 21.75C12.7991 21.75 13.5746 21.7163 14.3141 21.6525C14.7022 21.6191 15 21.2948 15 20.9055V19.5C15 17.8432 13.6568 16.5 12 16.5C10.3432 16.5 9 17.8432 9 19.5V20.9055ZM13.5 20.2069V19.5C13.5 18.6716 12.8284 18 12 18C11.1716 18 10.5 18.6716 10.5 19.5V20.2069C10.9875 20.2354 11.4885 20.25 12 20.25C12.5115 20.25 13.0125 20.2354 13.5 20.2069Z" fill="black"/>
<path fill-rule="evenodd" clip-rule="evenodd" d="M15.75 3C15.75 2.586 15.4143 2.25 15 2.25H9C8.5857 2.25 8.25 2.586 8.25 3V5.99999C8.25 6.41399 8.5857 6.74999 9 6.74999H15C15.4143 6.74999 15.75 6.41399 15.75 5.99999V3ZM9.75 3.75V5.24999H14.25V3.75H9.75Z" fill="black"/>
<path fill-rule="evenodd" clip-rule="evenodd" d="M9.75 6V8.25C9.75 8.664 10.086 9 10.5 9C10.914 9 11.25 8.664 11.25 8.25V6C11.25 5.586 10.914 5.25 10.5 5.25C10.086 5.25 9.75 5.586 9.75 6Z" fill="black"/>
<path fill-rule="evenodd" clip-rule="evenodd" d="M12.75 6V8.25C12.75 8.664 13.086 9 13.5 9C13.914 9 14.25 8.664 14.25 8.25V6C14.25 5.586 13.914 5.25 13.5 5.25C13.086 5.25 12.75 5.586 12.75 6Z" fill="black"/>
<path fill-rule="evenodd" clip-rule="evenodd" d="M17.625 7.125V9.00002C17.625 9.41386 17.961 9.75002 18.375 9.75002C18.789 9.75002 19.125 9.41386 19.125 9.00002V7.125C19.125 6.71116 18.789 6.375 18.375 6.375C17.961 6.375 17.625 6.71116 17.625 7.125Z" fill="black"/>
<path fill-rule="evenodd" clip-rule="evenodd" d="M18.6122 4.91361C18.3833 4.83711 18.1318 4.87573 17.9361 5.01673C17.7409 5.15736 17.625 5.38386 17.625 5.62498V7.12498C17.625 7.36611 17.7409 7.59261 17.9361 7.73323C18.1318 7.87423 18.3833 7.91286 18.6122 7.83636L20.8622 7.08636C21.1682 6.98436 21.3746 6.69786 21.3746 6.37498C21.3746 6.05211 21.1682 5.76561 20.8622 5.66361L18.6122 4.91361Z" fill="black"/>
<path fill-rule="evenodd" clip-rule="evenodd" d="M3.75 7.125V9.00002C3.75 9.41386 4.086 9.75002 4.5 9.75002C4.914 9.75002 5.25 9.41386 5.25 9.00002V7.125C5.25 6.71116 4.914 6.375 4.5 6.375C4.086 6.375 3.75 6.71116 3.75 7.125Z" fill="black"/>
<path fill-rule="evenodd" clip-rule="evenodd" d="M4.73719 4.91361C4.50825 4.83711 4.25682 4.87573 4.06107 5.01673C3.86588 5.15736 3.75 5.38386 3.75 5.62498V7.12498C3.75 7.36611 3.86588 7.59261 4.06107 7.73323C4.25682 7.87423 4.50825 7.91286 4.73719 7.83636L6.98719 7.08636C7.29319 6.98436 7.49963 6.69786 7.49963 6.37498C7.49963 6.05211 7.29319 5.76561 6.98719 5.66361L4.73719 4.91361Z" fill="black"/>
</g>
<defs>
<clipPath id="clip0_2721_5761">
<rect width="24" height="24" fill="white"/>
</clipPath>
</defs>
</svg>
