<svg width="24" height="24" viewBox="0 0 24 24" fill="none" xmlns="http://www.w3.org/2000/svg">
<g clip-path="url(#clip0_2721_5802)">
<path fill-rule="evenodd" clip-rule="evenodd" d="M7.93207 19.0685L9.08342 20.2198C9.37616 20.5126 9.85134 20.5126 10.1441 20.2198L10.72 19.6439C11.0125 19.3514 11.4879 19.3511 11.7807 19.6439C12.0734 19.9366 12.0732 20.4121 11.7807 20.7045L11.2047 21.2805C10.3268 22.1584 8.90072 22.1584 8.02276 21.2805L6.43177 19.6895C6.13876 19.3965 6.13876 18.9218 6.43177 18.6288C6.72451 18.3361 6.72451 17.8609 6.43177 17.5682C6.13903 17.2754 5.66385 17.2754 5.37111 17.5682C5.0781 17.8612 4.60345 17.8612 4.31045 17.5682L2.71946 15.9772C1.8415 15.0992 1.8415 13.6732 2.71946 12.7952L12.7957 2.71892C13.6737 1.84096 15.0997 1.84096 15.9777 2.71892L17.5687 4.30991C17.8617 4.60292 17.8617 5.07756 17.5687 5.37057C17.276 5.66331 17.276 6.13849 17.5687 6.43123C17.8614 6.72397 18.3366 6.72397 18.6294 6.43123C18.9224 6.13822 19.397 6.13822 19.69 6.43123L21.281 8.02222C22.159 8.90018 22.159 10.3262 21.281 11.2042L14.0306 18.4546C13.7379 18.7473 13.2627 18.7473 12.9699 18.4546C12.6772 18.1619 12.6772 17.6867 12.9699 17.3939L20.2203 10.1435C20.5131 9.8508 20.5131 9.37562 20.2203 9.08288L19.069 7.93153C18.2329 8.33061 17.2001 8.18397 16.508 7.49189C15.816 6.79981 15.6693 5.76699 16.0684 4.93093L14.917 3.77958C14.6243 3.48684 14.1491 3.48684 13.8564 3.77958L3.78012 13.8559C3.48738 14.1486 3.48738 14.6238 3.78012 14.9165L4.93146 16.0679C5.76753 15.6688 6.80035 15.8154 7.49243 16.5075C8.18451 17.1996 8.33114 18.2324 7.93207 19.0685Z" fill="black"/>
<path fill-rule="evenodd" clip-rule="evenodd" d="M12.7958 8.02263L15.9778 11.2046C16.2706 11.4974 16.7457 11.4974 17.0385 11.2046C17.3312 10.9119 17.3312 10.4367 17.0385 10.144L13.8565 6.96197C13.5638 6.66923 13.0886 6.66923 12.7958 6.96197C12.5031 7.25471 12.5031 7.72989 12.7958 8.02263Z" fill="black"/>
<path fill-rule="evenodd" clip-rule="evenodd" d="M9.08341 11.734L7.49245 13.3249C7.19972 13.6177 7.19968 14.0929 7.49242 14.3856C7.78516 14.6784 8.26037 14.6783 8.5531 14.3856L10.1441 12.7946C10.4368 12.5019 10.4368 12.0267 10.1441 11.7339C9.85136 11.4412 9.37615 11.4412 9.08341 11.734Z" fill="black"/>
<path fill-rule="evenodd" clip-rule="evenodd" d="M13.3261 11.7349L9.6138 15.4472C9.32106 15.74 9.32106 16.2151 9.6138 16.5079C9.90655 16.8006 10.3817 16.8006 10.6745 16.5079L14.3868 12.7956C14.6795 12.5028 14.6795 12.0277 14.3868 11.7349C14.094 11.4422 13.6189 11.4422 13.3261 11.7349Z" fill="black"/>
</g>
<defs>
<clipPath id="clip0_2721_5802">
<rect width="24" height="24" fill="white"/>
</clipPath>
</defs>
</svg>
